<svg width="32" height="32" viewBox="0 0 32 32" xmlns="http://www.w3.org/2000/svg">
  <defs>
    <!-- Gradient definitions -->
    <linearGradient id="shieldGradient" x1="0%" y1="0%" x2="100%" y2="100%">
      <stop offset="0%" style="stop-color:#06B6D4;stop-opacity:1" />
      <stop offset="50%" style="stop-color:#A855F7;stop-opacity:1" />
      <stop offset="100%" style="stop-color:#EC4899;stop-opacity:1" />
    </linearGradient>
    
    <!-- Glow effect -->
    <filter id="glow" x="-50%" y="-50%" width="200%" height="200%">
      <feGaussianBlur stdDeviation="2" result="coloredBlur"/>
      <feMerge> 
        <feMergeNode in="coloredBlur"/>
        <feMergeNode in="SourceGraphic"/>
      </feMerge>
    </filter>
    
    <!-- Inner glow -->
    <filter id="innerGlow" x="-50%" y="-50%" width="200%" height="200%">
      <feGaussianBlur stdDeviation="1" result="blur"/>
      <feFlood flood-color="#06B6D4" flood-opacity="0.5"/>
      <feComposite in2="blur" operator="over"/>
      <feMerge> 
        <feMergeNode/>
        <feMergeNode in="SourceGraphic"/>
      </feMerge>
    </filter>
  </defs>
  
  <!-- Dark background circle -->
  <circle cx="16" cy="16" r="15" fill="#111827" stroke="url(#shieldGradient)" stroke-width="1"/>
  
  <!-- Shield shape -->
  <path d="M16 4 L11 7 L11 16 C11 20 14 23 16 24 C18 23 21 20 21 16 L21 7 Z" 
        fill="none" 
        stroke="url(#shieldGradient)" 
        stroke-width="1.5" 
        filter="url(#glow)"/>
  
  <!-- Inner shield detail -->
  <path d="M16 6 L12.5 8.5 L12.5 15.5 C12.5 18.5 15 21 16 21.5 C17 21 19.5 18.5 19.5 15.5 L19.5 8.5 Z" 
        fill="url(#shieldGradient)" 
        fill-opacity="0.3" 
        filter="url(#innerGlow)"/>
  
  <!-- Checkmark or lock symbol inside -->
  <path d="M13 14 L15.5 16.5 L19 13" 
        stroke="#06B6D4" 
        stroke-width="1.5" 
        stroke-linecap="round" 
        stroke-linejoin="round" 
        fill="none" 
        filter="url(#glow)"/>
  
  <!-- Tech corner details -->
  <rect x="2" y="2" width="3" height="1" fill="#06B6D4" opacity="0.6"/>
  <rect x="2" y="2" width="1" height="3" fill="#06B6D4" opacity="0.6"/>
  
  <rect x="27" y="2" width="3" height="1" fill="#A855F7" opacity="0.6"/>
  <rect x="29" y="2" width="1" height="3" fill="#A855F7" opacity="0.6"/>
  
  <rect x="2" y="29" width="3" height="1" fill="#EC4899" opacity="0.6"/>
  <rect x="2" y="27" width="1" height="3" fill="#EC4899" opacity="0.6"/>
  
  <rect x="27" y="29" width="3" height="1" fill="#06B6D4" opacity="0.6"/>
  <rect x="29" y="27" width="1" height="3" fill="#06B6D4" opacity="0.6"/>
</svg>