<svg xmlns="http://www.w3.org/2000/svg" viewBox="0 0 64 64" width="64" height="64">
  <circle cx="32" cy="32" r="32" fill="#22c55e"/>
  <!-- fingerprint: nested U-shaped arcs (loop pattern) -->
  <path d="M19 40 C19 25 25 15 32 15 C39 15 45 25 45 40" fill="none" stroke="white" stroke-width="3.5" stroke-linecap="round"/>
  <path d="M22 42 C22 29 27 21 32 21 C37 21 42 29 42 42" fill="none" stroke="white" stroke-width="3.5" stroke-linecap="round"/>
  <path d="M25 44 C25 33 28 27 32 27 C36 27 39 33 39 44" fill="none" stroke="white" stroke-width="3.5" stroke-linecap="round"/>
  <path d="M28 46 C28 37 30 33 32 33 C34 33 36 37 36 46" fill="none" stroke="white" stroke-width="3.5" stroke-linecap="round"/>
</svg>
